#!OML:ASF X:\für Bonn\!DataBase\2005_08_11_Bastian_Final\c3d\Bastian.ASF
:FULLY-SPECIFIED
:DEGREES
221
root -3.33741 4.25075 21.7708 -960.148 -3.63578 -164.992
lowerback 68.0667 2.66323 17.903
upperback 26.3355 -8.14129 3.902
thorax 10.3043 -11.8149 -2.05548
lowerneck -7.46987 -9.5567 -12.7352
upperneck -14.6149 -9.61812 15.4097
head -1.58442 -3.84345 6.60692
rclavicle -3.49861e-014 -2.38542e-014
rhumerus -25.8991 51.0658 -85.641
rradius 33.4106
rwrist -17.1233
rhand -19.1625 -7.12736
rfingers 7.12502
rthumb 7.1483 -36.9866
lclavicle -3.49861e-014 -2.38542e-014
lhumerus -13.9468 37.9615 70.2022
lradius 10.8225
lwrist 23.9851
lhand -16.7728 -18.0518
lfingers 7.12502
lthumb 9.45455 11.7161
rfemur -26.4981 -64.5004 -24.0357
rtibia 151.145
rfoot -40.3819 15.176
rtoes -18.1243
lfemur -73.748 24.6048 -31.6851
ltibia 120.807
lfoot -4.62951 -1.73109
ltoes 15.1652
222
root -3.34697 4.20464 21.7887 -960.586 -3.27715 -165.047
lowerback 67.9819 2.70891 17.9519
upperback 26.2981 -8.11261 4.09813
thorax 10.2917 -11.8785 -1.87387
lowerneck -7.49972 -9.42573 -12.7253
upperneck -14.4426 -9.49557 15.0414
head -1.57509 -3.78897 6.49205
rclavicle -1.59028e-015 2.70347e-014
rhumerus -26.8948 50.7569 -86.6255
rradius 33.1587
rwrist -17.4137
rhand -19.1724 -7.47522
rfingers 7.12502
rthumb 7.13872 -37.3348
lclavicle -1.59028e-015 2.70347e-014
lhumerus -14.5121 37.6831 70.3285
lradius 10.943
lwrist 24.3968
lhand -16.8386 -18.2063
lfingers 7.12502
lthumb 9.39111 11.5645
rfemur -27.1386 -64.4066 -23.3717
rtibia 151.209
rfoot -39.8892 15.1956
rtoes -18.6044
lfemur -73.1502 24.133 -31.2853
ltibia 118.681
lfoot -3.68475 -2.34457
ltoes 12.5693
223
root -3.35659 4.15903 21.8083 -961.02 -2.91373 -165.087
lowerback 67.8924 2.72814 18.0214
upperback 26.2547 -8.0974 4.29054
thorax 10.2731 -11.9438 -1.69911
lowerneck -7.53703 -9.30318 -12.7336
upperneck -14.2667 -9.38245 14.6692
head -1.56105 -3.7377 6.37805
rclavicle -1.27222e-014 -6.67916e-014
rhumerus -27.7997 50.3987 -87.5239
rradius 32.8561
rwrist -17.5574
rhand -19.0637 -7.82156
rfingers 7.12502
rthumb 7.24363 -37.6776
lclavicle -1.27222e-014 -6.67916e-014
lhumerus -15.0838 37.1771 70.5219
lradius 11.1345
lwrist 25.0223
lhand -16.9723 -18.2678
lfingers 7.12502
lthumb 9.26207 11.5088
rfemur -27.97 -64.2144 -22.4475
rtibia 151.236
rfoot -39.36 15.3069
rtoes -18.918
lfemur -72.4536 23.6028 -30.8307
ltibia 116.435
lfoot -2.73336 -2.93996
ltoes 10.0187
224
root -3.36288 4.11291 21.8251 -961.424 -2.57647 -165.122
lowerback 67.7566 2.76036 18.0764
upperback 26.2397 -8.09178 4.48366
thorax 10.2863 -12.0129 -1.5245
lowerneck -7.64946 -9.18633 -12.7856
upperneck -14.0535 -9.26083 14.3677
head -1.51744 -3.67831 6.2894
rclavicle 6.20208e-014 5.56597e-014
rhumerus -28.5894 50.0193 -88.3397
rradius 32.541
rwrist -17.5205
rhand -18.9226 -8.06282
rfingers 7.12502
rthumb 7.37988 -37.9141
lclavicle 6.20208e-014 5.56597e-014
lhumerus -15.5757 36.7076 70.7302
lradius 11.2847
lwrist 25.6014
lhand -17.1741 -18.3783
lfingers 7.12502
lthumb 9.06731 11.4068
rfemur -28.4743 -64.2166 -21.8852
rtibia 151.304
rfoot -38.9112 15.2893
rtoes -19.4698
lfemur -71.7158 23.0387 -30.3509
ltibia 114.109
lfoot -1.6592 -3.47687
ltoes 7.97084
225
root -3.36742 4.06773 21.8399 -961.811 -2.26132 -165.145
lowerback 67.6342 2.77618 18.1234
upperback 26.1925 -8.07565 4.68092
thorax 10.2589 -12.0706 -1.33403
lowerneck -7.72064 -9.06679 -12.8375
upperneck -13.8487 -9.14264 14.0408
head -1.48379 -3.62268 6.19469
rclavicle 1.74931e-014 -2.22639e-014
rhumerus -29.4312 49.6544 -89.1224
rradius 32.2684
rwrist -17.2879
rhand -18.7291 -8.29161
rfingers 7.12502
rthumb 7.56662 -38.1363
lclavicle 1.74931e-014 -2.22639e-014
lhumerus -16.1053 36.2531 70.9423
lradius 11.4698
lwrist 26.1363
lhand -17.3174 -18.4346
lfingers 7.12502
lthumb 8.92909 11.3565
rfemur -28.9834 -64.2188 -21.2975
rtibia 151.376
rfoot -38.4632 15.2366
rtoes -19.9161
lfemur -70.9219 22.4724 -29.8531
ltibia 111.751
lfoot -0.55414 -3.97387
ltoes 6.34377
226
root -3.3706 4.02302 21.8545 -962.209 -1.97352 -165.161
lowerback 67.5137 2.76629 18.1904
upperback 26.1506 -8.079 4.87034
thorax 10.2402 -12.1333 -1.15595
lowerneck -7.82967 -8.95766 -12.9244
upperneck -13.6238 -9.02842 13.7569
head -1.43267 -3.5667 6.11677
rclavicle -2.22639e-014 3.97569e-014
rhumerus -30.1825 49.2387 -89.8438
rradius 31.9635
rwrist -16.9211
rhand -18.502 -8.45322
rfingers 7.12502
rthumb 7.78586 -38.2899
lclavicle -2.22639e-014 3.97569e-014
lhumerus -16.6236 36.0325 71.109
lradius 11.6207
lwrist 26.4987
lhand -17.447 -18.497
lfingers 7.12502
lthumb 8.80402 11.2994
rfemur -29.3623 -64.2543 -20.8271
rtibia 151.441
rfoot -38.0095 15.216
rtoes -20.2593
lfemur -70.1027 21.9173 -29.3246
ltibia 109.438
lfoot 0.478635 -4.47868
ltoes 4.83775
227
root -3.37153 3.97743 21.8649 -962.575 -1.71532 -165.185
lowerback 67.367 2.75926 18.2312
upperback 26.104 -8.07402 5.04628
thorax 10.2081 -12.182 -0.982317
lowerneck -7.86883 -8.8358 -13.0345
upperneck -13.4232 -8.90144 13.5109
head -1.39712 -3.50776 6.05844
rclavicle -1.74931e-014 0
rhumerus -30.9345 48.8501 -90.5615
rradius 31.6574
rwrist -16.4719
rhand -18.3158 -8.58272
rfingers 7.12502
rthumb 7.96559 -38.4126
lclavicle -1.74931e-014 0
lhumerus -17.1471 35.7319 71.2554
lradius 11.7713
lwrist 26.8751
lhand -17.5278 -18.5313
lfingers 7.12502
lthumb 8.72605 11.2683
rfemur -29.4227 -64.4724 -20.7409
rtibia 151.551
rfoot -37.6878 15.0677
rtoes -20.8747
lfemur -69.3018 21.3919 -28.8286
ltibia 107.161
lfoot 1.43283 -4.97196
ltoes 3.02694
228
root -3.37047 3.93229 21.8737 -962.946 -1.45242 -165.18
lowerback 67.1995 2.74452 18.2972
upperback 26.0794 -8.08644 5.23284
thorax 10.2083 -12.2421 -0.810686
lowerneck -7.9468 -8.70288 -13.1265
upperneck -13.2287 -8.75087 13.2534
head -1.36155 -3.43475 5.99375
rclavicle -3.02153e-014 1.74931e-014
rhumerus -31.6 48.535 -91.2342
rradius 31.3391
rwrist -16.0228
rhand -18.2294 -8.63226
rfingers 7.12502
rthumb 8.04894 -38.459
lclavicle -3.02153e-014 1.74931e-014
lhumerus -17.6472 35.6131 71.3998
lradius 11.9248
lwrist 27.1109
lhand -17.6623 -18.6168
lfingers 7.12502
lthumb 8.59623 11.1882
rfemur -29.3696 -64.705 -20.7225
rtibia 151.668
rfoot -37.32 15.0213
rtoes -21.1909
lfemur -68.438 20.8743 -28.2576
ltibia 104.875
lfoot 2.30917 -5.4196
ltoes 1.76039
